<svg viewBox="0 0 61 65" fill="none" xmlns="http://www.w3.org/2000/svg">
    <g clip-path="url(#clip0_133_776)">
        <path d="M60.7111 21.0144C60.8323 28.8266 58.9021 36.1557 55.2465 43.0433C52.8445 47.5687 49.9671 51.7593 46.2568 55.3236C42.8712 58.6236 39.0823 61.4842 34.9797 63.8375C34.2828 64.2161 33.5587 64.5422 32.8133 64.8136C32.4257 64.9835 31.9957 65.0327 31.5796 64.9554C31.1633 64.8778 30.7803 64.6771 30.4797 64.3794C30.1323 64.0779 29.7195 63.8618 29.2736 63.748C21.7045 61.8108 15.7791 57.4782 11.1581 51.2955C6.30764 44.8056 3.14029 37.5218 1.37758 29.6503C0.573092 26.0577 -0.0538742 22.4081 0.0549958 18.6914C0.097661 16.2604 0.468836 13.8464 1.15846 11.5146C1.30444 11.0247 1.52197 10.559 1.80403 10.1324C2.11204 9.67962 2.61454 9.43483 3.1567 9.6921C5.33519 10.7266 7.69395 10.7652 10.0144 10.8726C14.8403 11.096 19.4027 9.94719 23.6842 7.78007C26.4456 6.38202 28.7361 4.41137 30.1123 1.54563C30.207 1.332 30.3167 1.12532 30.4406 0.927271C31.1091 -0.066847 32.3877 -0.150366 33.0023 0.851126C35.294 4.58698 38.7782 6.84576 42.5763 8.75315C46.2965 10.6215 50.2336 11.0613 54.3181 10.6456C55.2482 10.5509 56.1801 10.4781 57.1134 10.4271C58.4016 10.357 58.9289 10.6847 59.482 11.9407C60.2094 13.6156 60.6216 15.4097 60.6985 17.2335C60.7617 18.4907 60.7111 19.7537 60.7111 21.0144ZM32.2353 4.93055C32.034 5.14139 31.8627 5.29354 31.7235 5.47079C30.2754 7.31766 28.4601 8.84546 26.3922 9.95841C19.616 13.6205 12.438 14.5232 4.92652 12.8318C4.58241 12.7542 4.23364 12.6986 3.81156 12.6183C3.32879 15.1789 3.24656 17.7987 3.56784 20.3844C3.87757 23.0721 4.3598 25.7371 5.01159 28.3631C6.77146 35.7832 10.0304 42.7663 14.5889 48.8845C18.8777 54.6092 24.4156 58.5239 31.4448 60.2106C31.9136 60.3232 32.3111 60.4018 32.7723 60.1156C36.7572 57.6399 40.5354 54.8973 43.7859 51.4968C48.336 46.7365 51.6366 41.1752 53.9923 35.0636C56.4154 28.7799 57.1878 22.2328 56.7855 15.5342C56.7195 15.0066 56.6211 14.4837 56.4906 13.9682C51.8376 15.1426 47.4317 14.5858 43.1986 12.8297C38.9655 11.0736 35.1726 8.62326 32.2358 4.93055H32.2353Z" fill="#4C5A86"/>
        <path d="M28.6672 41.6491C29.4534 40.7366 30.0896 39.9935 30.7316 39.2539C34.1914 35.2553 37.9132 31.4905 41.8725 27.9846C42.2855 27.6055 42.7429 27.2781 43.235 27.0093C43.6092 26.8127 44.0378 26.7445 44.4547 26.8153C44.8716 26.886 45.2535 27.0917 45.5415 27.4007C46.0424 27.9709 46.1083 28.8282 45.6356 29.6216C45.3686 30.0602 45.0497 30.465 44.6853 30.8271C43.1048 32.4218 41.4635 33.9583 39.9166 35.5844C37.274 38.3622 34.6758 41.1831 32.0775 44.0016C29.995 46.2613 29.1043 46.4129 26.5572 44.6937C24.4261 43.2552 22.3247 41.7739 20.2529 40.2491C19.412 39.5792 18.6091 38.8631 17.8479 38.1041C17.6422 37.9129 17.4651 37.6934 17.3221 37.4519C16.9135 36.7607 16.9553 36.0143 17.4214 35.5011C17.6383 35.2488 17.9325 35.0753 18.2584 35.0071C18.5843 34.9388 18.9236 34.9797 19.2238 35.1237C19.8075 35.4134 20.3599 35.7625 20.8722 36.165C23.435 37.9621 25.9912 39.7663 28.6672 41.6491Z" fill="#4C5A86"/>
    </g>
    <defs>
        <clipPath id="clip0_133_776">
            <rect width="61" height="65" fill="white"/>
        </clipPath>
    </defs>
</svg>
