<?xml version="1.0" standalone="no"?>
<!DOCTYPE svg PUBLIC "-//W3C//DTD SVG 20010904//EN"
 "http://www.w3.org/TR/2001/REC-SVG-20010904/DTD/svg10.dtd">
<svg version="1.0" xmlns="http://www.w3.org/2000/svg"
 width="96.000000pt" height="96.000000pt" viewBox="0 0 96.000000 96.000000"
 preserveAspectRatio="xMidYMid meet">
<metadata>
Created by potrace 1.14, written by Peter Selinger 2001-2017
</metadata>
<g transform="translate(0.000000,96.000000) scale(0.100000,-0.100000)"
fill="#000000" stroke="none">
<path d="M350 936 c-256 -72 -408 -346 -330 -597 35 -114 97 -197 194 -261
160 -104 361 -104 522 0 77 50 128 109 173 202 35 74 36 77 36 196 l0 120 -42
86 c-66 132 -182 227 -314 257 -59 14 -184 12 -239 -3z m-140 -240 c0 -2 -8
-10 -17 -17 -16 -13 -17 -12 -4 4 13 16 21 21 21 13z m520 -297 c0 -5 -6 -9
-13 -9 -7 0 -48 -39 -92 -86 -109 -120 -155 -135 -222 -72 -30 28 -30 12 -1
-21 34 -40 -27 22 -132 134 -52 55 -76 82 -52 60 l42 -39 0 27 c0 21 24 54
100 137 56 60 105 112 111 115 5 4 7 12 3 18 -3 7 53 -48 125 -121 72 -73 131
-138 131 -143z m-557 246 c-3 -9 -8 -14 -10 -11 -3 3 -2 9 2 15 9 16 15 13 8
-4z m-26 -102 c-3 -10 -5 -4 -5 12 0 17 2 24 5 18 2 -7 2 -21 0 -30z m346
-370 c-7 -2 -19 -2 -25 0 -7 3 -2 5 12 5 14 0 19 -2 13 -5z"/>
<path d="M280 345 c13 -14 26 -25 28 -25 3 0 -5 11 -18 25 -13 14 -26 25 -28
25 -3 0 5 -11 18 -25z"/>
</g>
</svg>
