<svg viewBox="0 0 64 63" fill="none" xmlns="http://www.w3.org/2000/svg">
    <path d="M17.3687 16.4072C19.721 13.9375 22.4662 11.8745 25.4929 10.3021C25.9055 10.0897 26.3109 9.79667 26.7516 9.71666C28.6989 9.36541 29.0588 8.01835 28.986 6.34878C28.9603 5.75527 28.9818 5.1598 28.9818 4.42523C28.4006 4.38509 27.9074 4.32821 27.4134 4.32096C25.835 4.29838 24.2544 4.33353 22.6785 4.26355C22.0312 4.24882 21.3942 4.09879 20.8084 3.8231C19.5604 3.18192 19.5383 1.81426 20.6969 1.03536C20.8093 0.95218 20.9351 0.888823 21.0688 0.848029C24.2978 0.0526866 27.5643 -0.350723 30.8452 0.391652C32.336 0.728969 32.9471 2.08326 32.5922 3.69178C32.2769 5.1205 31.951 6.54727 31.5939 8.13879C33.5679 7.84329 35.2885 7.46777 37.0258 7.361C38.5811 7.26566 40.1542 7.49258 41.7207 7.5238C42.3461 7.54856 42.9718 7.47998 43.577 7.3203C45.1262 6.87147 46.631 6.25455 48.1949 5.87682C48.9259 5.70007 49.3359 5.49017 49.5152 4.73664C49.6904 3.9696 49.957 3.22635 50.3094 2.52288C50.6481 1.86442 51.2645 1.46356 52.0531 1.73676C52.8989 2.02835 52.9672 2.78967 52.776 3.47266C52.4712 4.38204 52.1159 5.27375 51.7119 6.14361C54.568 7.27571 57.4084 8.48532 58.5943 11.8075C59.4211 11.551 60.1555 11.3012 60.9017 11.1002C61.3463 10.9698 61.8049 10.8933 62.2677 10.8725C62.9892 10.8574 63.6736 11.2006 63.663 11.9287C63.6554 12.4651 63.2749 13.2816 62.8428 13.4678C61.848 13.8445 60.8063 14.0833 59.7468 14.1776C59.0481 14.2687 58.7008 14.5202 58.4895 15.209C57.8503 17.2979 56.6139 19.0174 55.0427 20.5219C54.7871 20.7667 54.5278 21.2423 54.5894 21.5464C55.1914 24.6679 55.2145 27.8734 54.6577 31.0033C56.0795 31.0724 57.4017 31.1354 58.7253 31.2023C59.2829 31.2302 59.8404 31.2519 60.3941 31.3013C62.1108 31.4538 63.1924 32.3141 63.2063 33.9856C63.2267 36.4806 62.9872 38.9784 62.8275 41.4729C62.8046 41.8303 62.7101 42.2889 62.4718 42.5044C61.9909 42.9379 61.3896 43.5041 60.8354 43.508C60.3776 43.5102 59.6313 42.8498 59.5117 42.3611C59.2109 41.0569 59.0482 39.7246 59.0261 38.3863C58.991 37.148 59.1728 35.9035 59.2715 34.4835C57.581 34.3577 55.978 34.2156 54.372 34.145C54.2228 34.1658 54.081 34.2226 53.9587 34.3105C53.8364 34.3983 53.7373 34.5147 53.67 34.6494C52.2204 38.7827 49.6702 42.1618 46.5488 45.1591C46.4897 45.2149 46.4818 45.3264 46.3993 45.5464C47.435 45.9155 48.4723 46.2773 49.5043 46.6539C51.664 47.4423 52.2335 48.2686 51.8959 50.5495C51.6243 52.1967 51.2645 53.8283 50.8182 55.437C50.6308 56.0596 50.345 56.6481 49.9716 57.1804C49.5358 57.845 48.8885 58.2066 48.0591 57.9797C47.69 57.8967 47.3623 57.6855 47.1342 57.3836C46.9062 57.0817 46.7926 56.7087 46.8136 56.331C46.805 55.5903 46.883 54.8512 47.0461 54.1287C47.3447 52.8659 47.7076 51.6147 48.1152 50.3825C48.3661 49.6245 48.2601 49.1208 47.4548 48.8707C47.4111 48.8552 47.3686 48.8366 47.3277 48.815C44.1683 47.3116 44.2269 47.4085 41.2381 49.2178C38.4699 50.8935 35.5578 52.332 32.5933 53.9377C32.9725 54.2129 33.4333 54.5555 33.9036 54.8856C35.1037 55.7302 35.5835 56.891 35.1826 58.2866C34.8532 59.4459 34.4164 60.5719 33.8779 61.65C33.3268 62.7414 32.3057 63.1387 31.4724 62.793C30.6272 62.4426 30.2458 61.4708 30.6046 60.284C30.8613 59.49 31.1806 58.7176 31.5594 57.9741C31.8479 57.38 31.8103 56.9382 31.2639 56.5228C30.6731 56.074 30.1733 55.4807 29.5355 55.1289C29.06 54.8998 28.523 54.8313 28.0053 54.9338C24.5638 55.6048 21.1059 55.9583 17.6221 55.4138C8.94328 54.0576 4.20494 47.4704 5.36687 38.4326C5.45553 37.6014 5.60064 36.7772 5.8012 35.9657C6.07161 34.9677 5.92917 34.1409 5.04852 33.401C4.33263 33.706 3.58858 34.0611 2.81833 34.3421C1.86353 34.6898 0.940777 34.6098 0.33528 33.7029C-0.284713 32.7743 0.00632403 31.8025 0.789121 31.2095C1.95623 30.3157 3.21533 29.5488 4.54505 28.9219C5.7067 28.3847 6.6498 29.1678 7.52264 30.037C7.70078 29.7348 7.85326 29.5124 7.97034 29.2729C9.71997 25.6772 11.949 22.3351 14.5965 19.3382C14.8464 19.1049 15.0154 18.7981 15.0791 18.4623C15.1428 18.1265 15.0979 17.7791 14.9509 17.4705C13.785 14.3259 13.8263 14.3778 10.5582 15.3866C9.32489 15.7441 8.04619 15.9207 6.76214 15.9107C6.3362 15.9201 5.92104 15.7763 5.59215 15.5054C5.26327 15.2346 5.0425 14.8547 4.96996 14.4349C4.89743 14.0151 4.97795 13.5832 5.19689 13.2177C5.41584 12.8522 5.75867 12.5775 6.16306 12.4433C8.55801 11.5942 10.9669 10.7225 13.4405 10.1789C15.1131 9.81143 16.2045 10.8758 16.5705 12.6162C16.8178 13.7893 17.0642 14.9623 17.3687 16.4072ZM46.6385 14.6576C46.0316 14.1372 45.5831 13.5166 44.9832 13.2805C42.797 12.4205 40.5989 11.1972 38.3338 11.0188C34.545 10.7205 30.7445 11.3216 27.2582 13.1205C19.0282 17.3665 13.5676 24.0585 10.2529 32.5689C8.91513 35.9017 8.39281 39.5059 8.72945 43.0814C8.89206 44.7814 9.52073 46.4035 10.5462 47.769L46.6385 14.6576ZM12.656 50.0304C15.1371 51.7948 17.8289 52.4457 20.6487 52.4279C30.2698 52.3649 38.2491 48.4484 44.9731 41.7678C49.6822 37.0889 51.6046 31.3737 51.0114 24.7905C50.7928 22.3635 50.0304 20.1091 48.7656 17.735L12.656 50.0304ZM53.1139 17.1039C56.6345 13.8846 56.1756 10.7358 52.1014 8.9436C51.3508 8.57773 50.539 8.35373 49.707 8.28291C48.6033 8.2436 47.4902 8.47804 46.3812 8.59541L46.306 8.99461C49.6161 10.7829 51.6726 13.6223 53.1133 17.1039H53.1139Z" fill="#4C5A86"/>
</svg>
