<svg viewBox="0 0 371 142" fill="none" xmlns="http://www.w3.org/2000/svg">
    <path d="M369.989 78.904C368.713 83.6474 365.35 89.1623 362.185 92.7717C361.214 93.8933 361.664 93.2874 360.972 94.0547C359.57 95.5823 358.315 96.8752 356.801 98.2397C356.299 98.6881 356.861 98.0609 356.334 98.5315C353.536 101.011 350.697 103.237 347.524 105.399C331.864 115.879 314.31 122.445 296.126 127.668C290.178 129.362 282.665 131.147 276.427 132.517C275.689 132.68 276.145 132.657 276.005 132.693C273.814 133.255 274.503 132.955 273.067 133.233C267.38 134.327 260.972 135.465 255.436 136.353C253.089 136.728 255.469 136.512 253.085 136.79C252.919 136.81 253.506 136.642 252.858 136.731C251.393 136.934 248.568 137.348 247.453 137.491C245.267 137.773 244.903 137.82 242.817 138.082C239.932 138.44 236.607 138.779 233.525 139.113C232.869 139.184 233.746 139.175 232.7 139.295C231.635 139.418 228.914 139.67 227.976 139.733C227.045 139.797 227.435 139.699 227.269 139.699C225.909 139.7 222.705 140.129 222.297 140.163C214.838 140.806 208.36 141.053 201.317 141.288C195.998 141.464 190.347 141.583 185.249 141.578C185.207 141.578 185.164 141.578 185.122 141.578C179.021 141.567 173.888 141.43 167.998 141.234C167.378 141.213 168.101 141.333 167.344 141.307C159.239 141.021 151.271 140.519 143.233 139.746C142.431 139.668 143.473 139.677 142.672 139.594C137.784 139.106 130.058 138.074 127.072 138.046C123.756 137.617 119.743 137.042 116.789 136.518C114.896 136.18 116.752 136.377 114.42 136.051C113.895 135.977 114.563 136.163 113.777 136.045C110.414 135.539 106.821 134.89 103.518 134.311C102.844 134.193 103.015 134.296 102.822 134.273C101.202 134.074 98.6065 133.381 98.042 133.252C93.6493 132.257 90.5395 131.602 86.4324 130.615C85.4912 130.387 86.581 130.749 85.6754 130.532C81.0244 129.416 76.19 128.112 71.6468 126.721C70.6408 126.411 71.5913 126.61 71.1123 126.458C68.9974 125.783 68.5335 125.799 66.4905 125.118C66.0616 124.974 66.3256 124.985 66.2492 124.953C65.057 124.446 63.9531 124.259 63.6406 124.159C59.7464 122.912 57.2149 121.82 53.4958 120.42C53.0414 120.247 54.0309 120.725 52.7571 120.234C44.3667 116.993 35.6962 112.922 28.1357 108.224C26.9762 107.5 27.8424 107.954 27.773 107.902C26.6735 107.077 25.7521 106.681 25.3785 106.446C22.3836 104.559 19.7598 102.438 17.7671 101.088C8.5168 93.62 -0.102266 83.1592 0.000712156 70.7065C0.0144155 67.7125 0.538968 64.7361 1.48736 61.9316C1.54853 61.7508 1.52176 62.1015 1.64411 61.7415C3.28064 57.4587 2.91671 58.2574 4.19192 55.495C4.51128 54.8126 5.96092 52.918 6.09242 52.7775C6.55253 52.202 6.22186 52.9001 6.36994 52.7034C7.61492 51.0975 7.08511 51.0706 8.86115 48.909C8.91722 48.8434 8.74197 49.1695 8.89671 48.9973C9.37784 48.4629 9.83163 47.9007 10.3371 47.3862C11.5262 46.1958 12.0108 45.9553 13.7498 44.1413C13.9692 43.9251 13.4647 44.032 15.3206 42.3972C16.03 41.7361 19.4939 38.9414 20.4981 38.2579C21.5058 37.536 20.8644 38.1009 20.9373 38.051C23.741 36.1591 22.6976 36.9676 24.1474 36.1501C25.6013 35.3547 25.0321 35.3179 25.5808 34.9121C26.1445 34.4916 28.2376 33.2848 28.7612 33.0107C29.2852 32.7294 28.6743 33.1517 29.1359 32.894C32.2326 31.1946 30.3877 31.9582 31.3769 31.3224C33.6608 29.8767 35.7155 29.0868 37.9442 27.9973C38.5459 27.7048 38.0302 27.8953 38.5628 27.625C40.6709 26.5646 42.0816 25.9878 44.4774 24.8327C44.872 24.6407 46.8242 23.6129 48.2112 23.1598C48.4033 23.0975 47.9071 23.3743 48.837 23.0024C50.2224 22.446 52.7732 21.4441 54.3252 20.8334C55.4371 20.3944 54.1187 20.7782 55.5347 20.2807C56.1659 20.0608 55.0268 20.552 56.2121 20.1349C57.3762 19.7205 60.4709 18.6162 61.6102 18.2304C62.7554 17.8375 62.1026 17.9749 62.1932 17.9381C62.7404 17.7159 64.959 16.9411 65.1615 16.8782C75.14 13.6372 84.5389 11.3473 94.4965 9.15225C95.2825 8.98042 94.7407 9.00915 94.8604 8.98207C97.5535 8.3762 95.4766 9.04486 97.3723 8.72817C97.0704 8.61433 98.1655 8.41609 100.049 8.02342C100.958 7.83467 100.449 7.86675 100.531 7.84357C101.864 7.47802 102.839 7.4282 103.089 7.40833C104.006 7.33543 104.988 7.03539 105.596 6.99237C106.213 6.94734 104.836 7.29492 106.642 6.96803C107.138 6.81625 105.766 6.89683 107.136 6.62555C112.337 5.56804 122.182 4.2344 126.383 3.73969C130.632 3.21672 131.972 3.06281 134.439 2.81297C138.9 2.38102 137.279 2.4328 140.028 2.10721C142.786 1.79219 141.471 2.21434 141.873 2.24026C142.27 2.26784 142.691 2.16407 143.181 2.15572C143.67 2.14768 142.622 2.28332 143.766 2.19597C144.905 2.10638 148.053 1.73914 148.444 1.64494C149.286 1.44054 147.869 1.39456 150.891 1.22589C151.065 1.21657 150.507 1.33439 151.173 1.29481C156.493 0.976989 161.98 0.687597 167.307 0.546022C168.033 0.527099 167.387 0.637047 167.81 0.627168C172.218 0.535253 170.639 0.443841 173.062 0.215869C172.517 0.447358 173.884 0.534828 177.226 0.479558C179.235 0.449645 178.889 0.3616 180.192 0.280494C180.582 0.255891 182.012 0.309319 182.272 0.26398C183.127 0.116118 181.774 -0.046277 185.249 0.012529C185.25 0.0125556 185.252 0.0125822 185.253 0.0126089C185.307 0.0136926 185.281 0.0242427 185.249 0.0376638C185.206 0.0553227 185.151 0.0779527 185.249 0.0905096C185.288 0.0954877 185.35 0.0988862 185.447 0.0998065C188.856 0.138513 189.264 -0.011402 192.922 0.020822C195.777 0.0449509 200.932 0.271791 204.167 0.418138C204.09 0.656092 207.197 0.727311 208.456 0.622997C210.586 0.73111 212.835 0.844467 214.909 0.995144C215.617 1.04675 215.147 1.08811 215.236 1.10119C216.598 1.30511 217.53 1.20535 217.988 1.22998C222.916 1.50566 227 1.97112 231.688 2.30881C231.857 2.32139 232.149 2.17942 233.405 2.43112C233.486 2.44812 231.913 2.3635 234.142 2.59869C236.378 2.8339 240.499 3.38858 243.614 3.70817C244.362 3.78315 246.26 3.89075 247.742 4.20203C247.939 4.24368 247.715 4.26168 247.999 4.32776C248.91 4.5398 249.46 4.44448 250.545 4.7462C251.632 5.04885 253.914 5.48868 256.982 5.87954C257.074 5.89141 257.837 5.87675 258.812 6.03999C260.37 6.29994 262.558 6.7055 264.155 6.99313C264.92 7.13067 264.446 6.95988 264.579 6.98234C269.803 7.88946 273.436 8.68902 278.953 9.94927C279.943 10.1748 282.887 10.7353 284.817 11.3022C286.928 11.9282 284.635 11.7609 289.544 12.9195C291.558 13.4063 294.132 13.5503 297.61 14.8442C304.4 16.7609 310.682 18.9933 317.323 21.4648C317.627 21.5778 318.631 21.8147 319.329 22.0969C320.365 22.516 320.901 22.8101 321.626 23.1158C324.757 24.4414 327.487 25.5957 330.455 27.0328C331.556 27.5704 331.144 27.4453 332.437 28.0921C333.697 28.7285 334.674 29.1214 336.386 30.0907C337.677 30.827 338.876 31.707 340.594 32.7433C340.758 32.6272 341.918 33.2948 343.99 34.5483C344.394 34.7944 344.001 34.4669 344.194 34.5806C344.981 35.0425 345.648 35.5448 346.37 35.9866C346.546 36.0943 346.59 36.0469 346.735 36.1321C347.944 36.8275 349.845 38.3846 350.138 38.643C351.332 39.6569 351.914 40.0118 352.854 40.8194C353.766 41.6141 352.342 40.505 353.414 41.4174C355.6 43.2777 358.307 45.8007 360.278 48.0295C361.053 48.9054 360.588 48.252 360.701 48.376C362.283 50.1287 363.715 52.2331 364.57 53.2247C365.119 54.909 365.481 54.388 367.018 57.5227C367.132 57.7738 367.105 58.1738 366.605 57.2481C366.093 56.3077 365.399 54.9506 364.546 53.7384C364.341 53.4241 363.087 51.9753 362.905 51.7677C361.572 50.151 361.579 49.7333 361.535 49.6399C360.909 48.5696 359.091 46.9032 358.635 46.471C356.606 44.4783 354.769 42.789 352.872 41.2921C351.598 40.297 351.365 40.3804 350.395 39.6281C347.081 37.1278 346.078 36.126 342.616 34.2375C341.881 33.853 342.497 34.462 340.011 32.7883C339.858 32.6821 337.979 31.4178 336.83 30.9121C336.684 30.8467 336.657 30.9059 336.469 30.8099C335.209 30.1682 334.373 29.6701 332.969 28.9832C331.601 28.3165 329.915 27.5338 328.292 26.7538C327.306 26.2784 326.153 25.6264 325.691 25.3891C324.413 24.726 322.918 24.2381 322.116 23.7907C321.326 23.3491 323.003 23.8742 320.867 22.9171C320.723 23.0396 320.472 23.1236 320.279 23.2274C315.479 21.2622 310.644 19.4511 305.756 17.8545C305.141 17.6543 305.742 17.9457 305.081 17.7339C302.244 16.8289 299.916 16.0469 296.959 15.2145C294.671 14.5726 292.235 13.9994 289.825 13.3928C288.38 12.811 284.924 12.0037 282.316 11.3755C281.409 11.1562 281.474 11.1191 280.838 10.9547C278.456 10.3457 279.54 10.7694 278.875 10.6462C276.016 10.1286 275.826 9.69018 272.451 9.00288C272.275 8.96567 270.06 8.73058 269.754 8.68552C267.823 8.39387 269.452 8.55292 268.253 8.30596C266.051 7.85718 264.539 7.52814 261.963 7.13861C261.21 7.02488 259.382 6.84226 257.921 6.50476C257.729 6.46032 257.847 6.41089 257.692 6.38155C254.902 5.86544 254.805 6.07173 253.19 5.89838C251.579 5.72622 249.095 5.22493 248.595 5.1141C247.296 4.82331 249.613 5.20822 249.694 5.21029C250.563 5.20464 248.721 4.9631 247.358 4.76813C247.189 4.53307 245.255 4.28889 245.93 4.56614C246.008 4.59653 247.084 4.72076 247.358 4.76813C246.123 4.80678 244 4.5515 241.652 4.07275C240.56 3.85184 241.59 3.86208 238.261 3.51582C236.743 3.36196 237.313 3.57038 235.967 3.46247C232.876 3.21464 228.911 2.69586 225.733 2.44902C224.578 2.35913 225.697 2.53232 224.907 2.47408C222.799 2.32038 220.979 2.12181 218.881 2.00476C218.691 1.99435 219.149 2.10884 218.497 2.06455C213.525 1.7331 209.262 1.44851 204.049 1.24317C201.57 1.14239 197.092 1.05868 194.487 1.00541C191.612 0.940783 188.291 0.855028 185.249 0.827014C183.567 0.810991 181.982 0.811365 180.615 0.834598C178.113 0.879494 178.665 0.958191 177.596 1.0294C175.555 1.16577 171.849 1.06326 171.363 1.04953C171.348 1.04798 173.505 0.97207 172.352 0.959792C171.68 0.889311 171.388 1.04853 171.363 1.04953C171.033 1.03478 166.754 1.15761 165.897 1.21267C165.431 1.23989 165.695 1.30751 165.452 1.32033C159.691 1.62413 153.929 1.9815 148.143 2.3942C148.041 2.40056 148.189 2.3014 147.948 2.31762C144.551 2.54618 142.409 2.84597 139.662 3.17324C136.89 3.50518 134.679 3.72307 133.033 3.75642C130.969 4.00429 127.941 4.30405 126.216 4.48705C124.49 4.66913 124.276 4.87213 124.126 4.89503C119.446 5.63626 116.683 5.94576 111.815 6.72619C109.464 7.10054 104.951 7.92583 102.416 8.437C100.441 8.83178 99.252 9.02857 97.4633 9.42206C97.2217 9.4754 97.4818 9.49903 97.4084 9.51715C95.3903 10.0291 96.3305 9.64547 95.9031 9.70092C94.3556 9.9066 93.3976 10.0429 90.8469 10.6766C90.266 10.8207 88.5882 11.4811 87.5005 11.7575C86.0933 12.1151 86.6017 11.8935 85.1383 12.2755C85.0137 12.3084 85.0524 12.3584 84.1505 12.5805C79.9476 13.6173 75.4106 14.8152 71.0563 16.1302C70.4686 16.3078 71.2483 16.1701 70.4013 16.4286C66.4385 17.639 62.1276 19.0571 58.242 20.4177C57.2986 20.7481 57.8653 20.473 57.6548 20.5287C56.3567 20.8744 54.6966 21.6865 54.3872 21.8098C47.4865 24.5684 42.1749 26.7157 35.5151 30.2794C35.1226 30.4836 32.5171 32.1037 31.1673 32.7141C31.0771 32.7534 29.7718 33.3234 28.7862 34.0538C28.7261 34.0993 29.5001 33.7215 28.2184 34.4967C26.9445 35.2673 24.8566 36.6805 23.1542 37.768C22.591 38.1274 21.1855 38.9216 19.7307 40.2075C19.6523 40.2641 17.4147 42.419 16.4996 42.971C16.3447 43.0706 16.3517 42.7443 14.6738 44.4196C14.3562 44.744 14.9863 44.2173 14.1392 45.0532C12.8651 46.3166 11.1397 48.0084 9.80711 49.7439C9.58602 50.0258 8.62979 51.4136 7.78555 52.4008C7.65259 52.5558 7.8204 52.2003 7.41436 52.7534C5.46724 55.4203 3.8412 58.4724 2.70418 61.5913C2.31292 62.701 2.38449 62.0934 2.00793 63.2578C1.61777 64.4274 1.11758 66.868 1.0746 68.1572C1.02628 69.4422 1.28551 68.0591 1.21109 69.9697C1.20612 70.2151 1.20441 70.4607 1.20599 70.7065C1.20455 78.8069 5.10946 86.4731 10.4716 92.5386C11.3071 93.4748 10.642 92.66 11.92 94.0281C16.4604 99.1064 26.2515 105.889 31.403 108.852C35.5009 111.287 30.262 108.447 33.3875 110.241C34.902 111.102 36.7207 111.804 37.1106 111.994C40.7931 113.794 43.4231 115.11 46.8544 116.567C47.5729 116.87 46.9036 116.489 47.5159 116.747C49.6247 117.632 51.7237 118.523 53.7691 119.306C54.6779 119.653 54.5498 119.533 55.3599 119.846C57.3124 120.594 59.0699 121.259 61.0356 122.006C61.2114 122.073 59.9788 121.732 61.4639 122.249C63.8081 123.064 66.8842 124.132 69.6489 124.911C70.4808 125.145 70.5503 125.014 72.3149 125.645C72.6878 125.775 72.1477 125.81 74.3029 126.271C74.6808 126.357 78.1935 127.126 79.9147 127.715C80.3599 127.87 81.5209 128.326 82.5257 128.559C82.6623 128.59 82.1384 128.374 82.9697 128.577C85.885 129.291 89.0832 130.062 92.0918 130.706C92.9072 130.88 91.7122 130.53 92.928 130.792C96.3022 131.518 100.453 132.382 103.772 133.028C104.995 133.266 104.136 133.176 104.223 133.2C105.651 133.589 106.487 133.571 106.965 133.647C109.887 134.109 112.176 134.569 114.871 134.973C115.617 135.084 115.1 134.924 115.25 134.94C116.803 135.112 115.632 135.073 116.608 135.239C119.343 135.702 122.447 136.135 125.213 136.486C126.237 136.616 125.099 136.376 126.018 136.493C131.5 137.185 137.153 137.806 142.466 138.336C143.469 138.435 142.831 138.448 143.039 138.483C144.47 138.724 146.61 138.747 147.102 138.771C149.334 138.881 150.165 139.003 152.126 139.129C161.69 139.752 173.55 140.204 182.575 140.259C183.48 140.266 184.37 140.271 185.249 140.274C195.805 140.294 204.414 140.089 214.768 139.454C215.485 139.409 214.756 139.361 215.374 139.32C223.297 138.802 231.122 138.151 239.023 137.21C239.667 137.133 238.728 137.154 239.761 137.026C241.906 136.762 244.628 136.424 246.773 136.162C247.821 136.034 246.429 136.299 247.482 136.169C249.931 135.864 252.619 135.479 255.12 135.074C256.186 134.901 254.562 135.065 255.949 134.846C265.467 133.329 274.747 131.504 284.225 129.33C284.875 129.181 285.49 129.221 286.847 128.844C286.937 128.769 286.917 128.712 286.949 128.648C300.515 125.186 313.784 121 326.573 115.238C327.103 114.997 326.148 115.326 327.173 114.859C333.213 112.084 338.888 109.064 344.6 105.467C345.165 105.105 344.988 105.442 346.593 104.321C346.856 104.15 349.318 102.373 349.889 101.879C349.967 101.812 349.492 102.073 350.247 101.498C354.668 98.1215 358.972 94.161 362.337 89.7931C362.878 89.0856 362.379 89.8956 362.762 89.391C365.491 85.8098 367.687 81.3796 368.757 77.2467C369.428 74.4602 369.329 75.524 369.701 74.0295C369.764 73.8178 369.911 72.0332 369.985 71.942C370.209 71.7095 370.394 72.6032 370.639 72.2537C370.714 72.1815 370.688 69.7016 370.791 71.1712C370.811 71.2748 370.762 73.0724 370.741 73.5168C370.736 73.8272 370.88 73.2808 370.847 73.9137C370.808 74.5491 370.647 75.2228 370.485 76.2596C370.303 77.29 370.537 76.885 369.989 78.904ZM118.451 5.37663C116.847 5.53273 116.657 5.86396 118.367 5.53648C118.45 5.52036 118.533 5.36846 118.451 5.37663ZM310.779 19.3175C308.796 18.4797 307.435 18.2317 308.777 18.7948C310.125 19.3641 311.381 19.5735 310.779 19.3175ZM330.94 27.5593C328.767 26.3968 328.233 26.6153 330.647 27.6775C330.786 27.7397 331.066 27.6274 330.94 27.5593ZM367.992 80.9383C368.01 80.9198 368.455 79.7004 368.454 79.6692C368.596 78.9907 367.717 81.4217 367.992 80.9383ZM349.555 38.4827C348.976 37.9753 347.098 36.7405 347.846 37.3522C348.464 37.8474 350.283 39.108 349.555 38.4827ZM38.0691 28.098C38.0438 28.1049 37.2227 28.5141 37.2514 28.5285C37.3417 28.5722 38.4743 27.9788 38.0691 28.098ZM369.925 67.7317C369.202 62.3787 368.208 59.1588 369.801 64.9039C370.035 65.9584 369.156 62.6606 369.447 64.0068C369.967 66.4545 370.402 68.0835 370.316 70.6594C370.325 71.1162 370.003 68.0283 369.923 67.7222C369.924 67.7253 369.924 67.7285 369.925 67.7317ZM117.481 5.1578C117.448 5.15824 116.173 5.34797 116.143 5.35695C115.468 5.55565 118.035 5.17318 117.481 5.1578ZM0.691177 65.3105C0.630884 65.3734 0.203987 68.3496 0.24293 68.4544C0.265753 69.2432 0.366649 68.1189 0.528841 66.9778C0.68356 65.8398 0.907773 64.6733 0.691177 65.3105ZM204.219 0.42661C205.641 0.385698 207.332 0.448848 208.449 0.622569C207.05 0.549518 205.636 0.487436 204.219 0.42661Z" fill="#0062FF"/>
</svg>
